<svg width="339" height="334" viewBox="0 0 339 334" fill="none" xmlns="http://www.w3.org/2000/svg">
<path d="M167.85 323.037C169.148 327.226 167.937 331.795 165.349 332.597C162.76 333.399 160.293 332.269 158.995 328.081C157.697 323.892 158.711 321.742 161.299 320.94C163.887 320.138 166.552 318.848 167.85 323.037Z" fill="#FFB8C2"/>
<path d="M333.609 312.732C327.63 318.154 319.067 319.685 315.717 315.991C312.367 312.297 312.333 307.302 318.312 301.88C324.29 296.459 328.665 296.48 332.015 300.174C335.364 303.868 339.588 307.31 333.609 312.732Z" fill="#FFB8C2"/>
<path d="M56.4433 309.599C48.1534 317.117 33.7617 316.463 26.3987 308.343C19.0357 300.224 16.9598 291.062 25.2497 283.544C33.5395 276.026 41.2147 277.831 48.5777 285.95C55.9407 294.07 64.7332 302.081 56.4433 309.599Z" fill="#FFB8C2"/>
<path d="M74.1531 179.846C75.4512 184.034 74.2398 188.603 71.6517 189.405C69.0636 190.207 66.5961 189.078 65.2979 184.889C63.9997 180.701 65.0139 178.551 67.602 177.749C70.1901 176.947 72.8549 175.657 74.1531 179.846Z" fill="#FFB8C2"/>
<path d="M285.271 102.144C284.366 90.7145 293.973 79.4487 305.237 78.5571C316.502 77.6654 325.283 81.7156 326.188 93.1455C327.093 104.575 320.782 109.672 309.518 110.564C298.253 111.456 286.175 113.574 285.271 102.144Z" fill="#FF7185"/>
<path d="M17.6006 87.4448C15.3191 89.8738 9.99091 86.9392 7.22896 84.1773C4.46702 81.4153 0.971968 75.9763 4.99668 71.9516C9.02139 67.9269 14.4087 73.4968 17.1706 76.2588C19.9326 79.0207 19.8822 85.0159 17.6006 87.4448Z" fill="#FF94A4"/>
<path d="M129.233 39.2792C123.254 44.7009 114.69 46.2316 111.34 42.5375C107.99 38.8434 107.956 33.8491 113.935 28.4273C119.914 23.0055 124.288 23.0265 127.638 26.7205C130.988 30.4146 135.211 33.8574 129.233 39.2792Z" fill="#FFB8C2"/>
<path d="M235.163 3.62709C236.241 7.64919 233.554 12.3067 229.59 13.3688C225.626 14.4309 222.223 13.5643 221.145 9.54224C220.067 5.52013 221.984 3.28323 225.948 2.22112C229.912 1.15901 234.085 -0.395019 235.163 3.62709Z" fill="#FFB8C2"/>
</svg>
