<svg width="18" height="23" viewBox="0 0 18 23" fill="none" xmlns="http://www.w3.org/2000/svg">
<path d="M4.71619 7.83728H12.7137" stroke="#212121" stroke-width="1.5" stroke-linecap="round" stroke-linejoin="round"/>
<path d="M0.754951 9.83385C0.754951 7.65461 0.834228 6.00138 1.05672 4.73739C1.27882 3.47556 1.63139 2.67759 2.11973 2.14262C2.60009 1.61639 3.28886 1.26076 4.36106 1.04133C5.44683 0.819124 6.85702 0.75 8.71528 0.75C10.5735 0.75 11.9837 0.819124 13.0695 1.04133C14.1417 1.26076 14.8305 1.61639 15.3108 2.14262C15.7992 2.67759 16.1517 3.47556 16.3738 4.73739C16.5963 6.00138 16.6756 7.65461 16.6756 9.83385C16.6756 10.7004 16.677 11.5079 16.6783 12.2603C16.6843 15.7901 16.6882 18.1053 16.5382 19.5971C16.446 20.5144 16.3046 20.9857 16.1588 21.2189C16.0975 21.3169 16.0475 21.3525 16.0119 21.3707C15.9713 21.3914 15.8951 21.4167 15.7468 21.4167C15.5316 21.4167 15.1599 21.2747 14.5908 20.8792C14.0824 20.5259 13.5337 20.0573 12.9381 19.5486C12.8988 19.5149 12.8592 19.4811 12.8194 19.4472C12.1954 18.9146 11.5226 18.3462 10.8631 17.9133C10.2215 17.492 9.47675 17.1187 8.71528 17.1187C7.95381 17.1187 7.20905 17.492 6.56745 17.9133C5.90794 18.3462 5.23512 18.9146 4.61112 19.4472C4.57131 19.4812 4.53171 19.515 4.49232 19.5487C3.89679 20.0573 3.34813 20.526 2.83979 20.8792C2.27061 21.2747 1.89897 21.4167 1.68378 21.4167C1.53551 21.4167 1.45928 21.3914 1.41864 21.3707C1.38312 21.3525 1.33309 21.3169 1.27181 21.2189C1.12594 20.9857 0.984588 20.5144 0.892352 19.5971C0.74233 18.1052 0.746276 15.7899 0.752292 12.26C0.753574 11.5077 0.754951 10.7002 0.754951 9.83385Z" stroke="#212121" stroke-width="1.5" stroke-linecap="round" stroke-linejoin="round"/>
</svg>
