<svg width="22" height="24" viewBox="0 0 22 24" fill="none" xmlns="http://www.w3.org/2000/svg">
<g id="Group">
<path id="Vector" fill-rule="evenodd" clip-rule="evenodd" d="M11 9.08325C12.611 9.08325 13.9167 10.3889 13.9167 11.9999C13.9167 13.6109 12.611 14.9166 11 14.9166C9.38898 14.9166 8.08334 13.6109 8.08334 11.9999C8.08334 10.3889 9.38898 9.08325 11 9.08325Z" stroke="#212121" stroke-width="1.5" stroke-linecap="round" stroke-linejoin="round"/>
<path id="Vector_2" fill-rule="evenodd" clip-rule="evenodd" d="M20.5293 6.45858V6.45858C19.7319 5.06762 17.9664 4.59167 16.5866 5.3949C15.3864 6.09211 13.8864 5.21974 13.8864 3.82416C13.8864 2.21885 12.5935 0.916626 10.9997 0.916626V0.916626C9.40593 0.916626 8.11304 2.21885 8.11304 3.82416C8.11304 5.21974 6.61306 6.09211 5.414 5.3949C4.03301 4.59167 2.26759 5.06762 1.47012 6.45858C0.67379 7.84954 1.14632 9.62772 2.52731 10.4298C3.72638 11.1282 3.72638 12.8718 2.52731 13.5701C1.14632 14.3734 0.67379 16.1515 1.47012 17.5413C2.26759 18.9323 4.03301 19.4082 5.41285 18.6062H5.414C6.61306 17.9078 8.11304 18.7802 8.11304 20.1758V20.1758C8.11304 21.7811 9.40593 23.0833 10.9997 23.0833V23.0833C12.5935 23.0833 13.8864 21.7811 13.8864 20.1758V20.1758C13.8864 18.7802 15.3864 17.9078 16.5866 18.6062C17.9664 19.4082 19.7319 18.9323 20.5293 17.5413C21.3268 16.1515 20.8531 14.3734 19.4733 13.5701H19.4721C18.2731 12.8718 18.2731 11.1282 19.4733 10.4298C20.8531 9.62772 21.3268 7.84954 20.5293 6.45858Z" stroke="#212121" stroke-width="1.5" stroke-linecap="round" stroke-linejoin="round"/>
</g>
</svg>
